<?xml version="1.0" standalone="no"?>
<!DOCTYPE svg PUBLIC "-//W3C//DTD SVG 20010904//EN"
 "http://www.w3.org/TR/2001/REC-SVG-20010904/DTD/svg10.dtd">
<svg version="1.0" xmlns="http://www.w3.org/2000/svg"
 width="170.000000pt" height="170.000000pt" viewBox="0 0 170.000000 170.000000"
 preserveAspectRatio="xMidYMid meet">
<metadata>
Created by potrace 1.11, written by Peter Selinger 2001-2013
</metadata>
<g transform="translate(0.000000,170.000000) scale(0.100000,-0.100000)"
fill="#000000" stroke="none">
<path d="M989 1672 c-76 -49 -84 -75 -40 -132 l20 -25 10 25 c6 14 19 36 30
50 l19 24 13 -26 c6 -15 26 -34 44 -43 37 -17 85 -20 85 -5 0 6 -9 10 -19 10
-15 0 -22 12 -31 53 -24 103 -53 118 -131 69z"/>
<path d="M678 1643 c32 -23 55 -47 59 -63 7 -32 61 -118 81 -129 13 -7 79 3
91 15 2 2 -14 23 -35 46 -22 24 -46 52 -54 64 -8 11 -28 25 -45 31 -16 5 -36
20 -42 34 -7 13 -13 20 -13 16 0 -4 -8 -4 -17 1 -10 5 -31 12 -48 16 -26 6
-23 2 23 -31z"/>
<path d="M560 1577 c-26 -9 -41 -24 -58 -57 -20 -39 -23 -56 -20 -130 4 -91
19 -125 89 -204 23 -27 27 -36 15 -36 -9 0 -16 -4 -16 -10 0 -5 -6 -10 -14
-10 -8 0 -18 -9 -21 -20 -9 -29 -16 -25 -54 31 -19 27 -71 85 -117 129 -82 77
-85 79 -126 74 -85 -10 -155 -82 -169 -173 -6 -39 -4 -50 17 -78 42 -56 140
-99 241 -106 23 -2 45 -5 47 -8 3 -2 1 -20 -3 -39 -5 -22 -1 -79 10 -150 9
-63 18 -108 19 -100 1 8 7 -3 15 -25 12 -36 41 -112 59 -156 5 -11 -9 -32 -42
-68 -45 -48 -51 -51 -76 -41 -30 11 -103 16 -111 8 -3 -3 -8 -18 -11 -34 -3
-16 -9 -31 -15 -32 -14 -6 -39 -32 -39 -43 0 -5 9 -18 19 -28 21 -21 50 -19
86 6 36 24 40 14 6 -15 -27 -22 -32 -33 -27 -50 4 -12 16 -27 26 -32 16 -9 27
-4 58 25 27 24 49 35 70 35 23 0 36 8 52 30 26 36 87 56 182 59 57 2 73 -2
107 -24 48 -32 84 -85 104 -152 13 -42 13 -54 1 -82 -8 -18 -11 -38 -8 -45 3
-6 -2 -2 -10 8 -12 15 -16 16 -16 5 0 -8 -3 -10 -8 -4 -9 13 -152 15 -152 2 0
-5 -7 -4 -15 3 -12 10 -18 10 -30 0 -8 -7 -15 -8 -15 -3 0 5 -40 9 -90 9 -49
0 -90 -4 -90 -9 0 -5 -7 -4 -15 3 -12 10 -18 10 -30 0 -9 -7 -15 -8 -15 -2 0
5 -17 9 -37 7 -21 -1 -37 -8 -36 -14 2 -5 -4 -8 -12 -5 -8 4 -12 11 -8 17 4 6
1 7 -8 1 -19 -12 -52 -12 -61 1 -5 7 -8 6 -8 -1 0 -6 -11 -10 -25 -9 -14 2
-27 -1 -30 -5 -3 -5 -13 -6 -23 -3 -9 3 -14 3 -10 -1 4 -5 54 -9 112 -11 58
-2 110 -6 116 -10 5 -3 10 -2 10 4 0 6 7 8 15 5 8 -4 15 -1 15 6 0 6 5 8 10 5
6 -4 8 -10 6 -13 -2 -4 83 -7 189 -7 106 0 191 3 189 7 -2 4 0 9 6 13 5 3 10
-2 10 -11 0 -16 1 -16 16 2 11 13 14 14 11 3 -7 -21 22 -21 47 0 18 15 19 15
13 -1 -4 -12 -2 -15 8 -11 8 3 12 9 9 15 -3 5 4 4 15 -4 18 -11 23 -11 31 2 6
10 10 11 10 3 0 -15 21 -13 32 2 5 6 8 5 8 -4 0 -11 3 -11 17 0 15 12 16 12 8
-1 -7 -12 -6 -13 6 -4 8 6 29 9 47 7 27 -2 35 2 44 23 10 21 9 31 -5 56 -22
38 -21 108 1 173 20 59 73 104 153 130 46 16 60 16 119 5 62 -12 70 -11 93 6
36 27 56 65 63 118 9 64 -3 76 -83 76 -73 0 -98 14 -164 92 -45 54 -55 88 -51
188 3 94 12 120 49 135 31 13 33 12 105 -43 40 -31 79 -62 86 -69 37 -35 105
-77 133 -80 17 -1 29 1 27 6 -1 5 -56 64 -121 131 -88 92 -116 127 -112 141 7
22 -27 59 -54 59 -14 0 -18 5 -14 19 6 23 -32 65 -52 57 -8 -3 -30 18 -56 52
-73 96 -113 132 -140 125 -13 -3 -30 -10 -36 -16 -9 -6 -18 -5 -28 3 -8 7 -15
9 -15 5 0 -4 -8 -1 -17 6 -10 7 -8 2 5 -12 20 -23 21 -27 7 -39 -10 -9 -15
-26 -13 -48 3 -31 9 -38 58 -65 72 -38 90 -55 86 -81 -2 -11 0 -31 5 -43 7
-18 2 -30 -23 -59 l-32 -36 -17 34 c-10 18 -18 43 -19 56 0 12 -5 22 -11 22
-6 0 -19 11 -30 24 -10 13 -33 29 -51 36 -18 7 -41 20 -50 28 -23 20 -101 9
-135 -18 -25 -20 -54 -26 -66 -14 -3 3 1 25 9 47 41 116 48 228 16 257 -32 30
-85 60 -107 60 -17 0 -17 2 -5 10 22 14 -15 12 -60 -3z m-196 -1548 c3 -3 -7
-5 -23 -5 -16 1 -32 3 -35 6 -3 3 8 5 24 5 16 0 31 -3 34 -6z m51 0 c11 -16 1
-19 -13 -3 -7 8 -8 14 -3 14 5 0 13 -5 16 -11z m192 -9 c4 -13 3 -13 -6 0 -6
8 -11 10 -11 4 0 -6 -7 -11 -15 -11 -8 0 -12 4 -9 9 3 4 0 8 -5 8 -6 0 -11 -6
-11 -12 0 -9 -4 -8 -10 2 -9 13 -10 13 -10 0 0 -13 -1 -13 -10 0 -9 13 -10 13
-10 0 0 -13 -1 -13 -10 0 -6 9 -10 10 -10 3 0 -14 -40 -13 -40 2 0 5 -5 3 -10
-5 -5 -8 -10 -10 -10 -4 0 18 6 19 91 19 64 0 83 -4 86 -15z m51 -1 c3 -11 2
-11 -7 1 -10 13 -12 13 -21 0 -5 -8 -10 -10 -10 -4 0 27 31 30 38 3z m112 7
c-14 -14 -80 -15 -80 -2 0 6 -5 4 -10 -4 -5 -8 -10 -10 -10 -4 0 17 5 19 59
19 34 1 47 -3 41 -9z m75 -6 c3 -5 1 -10 -4 -10 -6 0 -11 5 -11 10 0 6 2 10 4
10 3 0 8 -4 11 -10z"/>
<path d="M970 1483 c0 -6 9 -21 21 -34 l20 -24 -17 30 c-24 39 -24 40 -24 28z"/>
<path d="M920 1466 c0 -2 8 -10 18 -17 15 -13 16 -12 3 4 -13 16 -21 21 -21
13z"/>
</g>
</svg>
